<svg width="33" height="33" viewBox="0 0 33 33" fill="none" xmlns="http://www.w3.org/2000/svg">
<rect x="0.5" y="0.5" width="32" height="32" rx="16" stroke="white"/>
<path fill-rule="evenodd" clip-rule="evenodd" d="M24.2268 22.0943L20.3463 18.2139C21.033 17.3046 21.4403 16.1724 21.4403 14.9451C21.4403 11.9468 19.0096 9.51611 16.0112 9.51611C13.0128 9.51611 10.5822 11.9468 10.5822 14.9451C10.5822 17.9435 13.0128 20.3742 16.0112 20.3742C17.2385 20.3742 18.3707 19.9669 19.28 19.2802L23.1604 23.1607L24.2268 22.0943ZM19.9316 14.9454C19.9316 17.1109 18.1761 18.8663 16.0106 18.8663C13.8451 18.8663 12.0896 17.1109 12.0896 14.9454C12.0896 12.7799 13.8451 11.0244 16.0106 11.0244C18.1761 11.0244 19.9316 12.7799 19.9316 14.9454Z" fill="white"/>
</svg>
